<svg xmlns="http://www.w3.org/2000/svg" xmlns:xlink="http://www.w3.org/1999/xlink" width="500" zoomAndPan="magnify" viewBox="0 0 375 374.999991" height="500" preserveAspectRatio="xMidYMid meet" version="1.0"><defs><g/></defs><rect x="-37.5" width="450" fill="#ffffff" y="-37.499999" height="449.999989" fill-opacity="1"/><rect x="-37.5" width="450" fill="#ffffff" y="-37.499999" height="449.999989" fill-opacity="1"/><rect x="-37.5" width="450" fill="#000000" y="-37.499999" height="449.999989" fill-opacity="1"/><g fill="#ffffff" fill-opacity="1"><g transform="translate(13.944586, 260.346985)"><g><path d="M 5.171875 -38.21875 C 5.171875 -43.3125 7.566406 -45.859375 12.359375 -45.859375 C 17.460938 -45.859375 20.015625 -43.910156 20.015625 -40.015625 C 20.015625 -31.472656 22.894531 -24.726562 28.65625 -19.78125 C 34.425781 -14.832031 42.1875 -12.359375 51.9375 -12.359375 C 62.125 -12.359375 69.988281 -15.207031 75.53125 -20.90625 C 81.082031 -26.601562 83.859375 -35.222656 83.859375 -46.765625 L 83.859375 -150.625 L 52.15625 -150.625 C 50.351562 -150.625 48.960938 -151.332031 47.984375 -152.75 C 47.015625 -154.175781 46.53125 -155.863281 46.53125 -157.8125 C 46.53125 -159.613281 47.015625 -161.148438 47.984375 -162.421875 C 48.960938 -163.703125 50.351562 -164.34375 52.15625 -164.34375 L 91.71875 -164.34375 C 96.363281 -164.34375 98.6875 -162.46875 98.6875 -158.71875 L 98.6875 -46.765625 C 98.6875 -30.128906 94.453125 -17.953125 85.984375 -10.234375 C 77.515625 -2.515625 66.3125 1.34375 52.375 1.34375 C 38.144531 1.34375 26.71875 -2.363281 18.09375 -9.78125 C 9.476562 -17.195312 5.171875 -26.675781 5.171875 -38.21875 Z M 5.171875 -38.21875 "/></g></g></g><g fill="#ffffff" fill-opacity="1"><g transform="translate(129.045524, 260.346985)"><g><path d="M 17.078125 -5.625 L 17.078125 -158.71875 C 17.078125 -160.519531 17.75 -161.90625 19.09375 -162.875 C 20.445312 -163.851562 22.023438 -164.34375 23.828125 -164.34375 L 103.40625 -164.34375 C 105.207031 -164.34375 106.59375 -163.703125 107.5625 -162.421875 C 108.539062 -161.148438 109.03125 -159.613281 109.03125 -157.8125 C 109.03125 -155.863281 108.539062 -154.175781 107.5625 -152.75 C 106.59375 -151.332031 105.207031 -150.625 103.40625 -150.625 L 31.921875 -150.625 L 31.921875 -88.796875 L 67.4375 -88.796875 C 69.09375 -88.796875 70.40625 -88.160156 71.375 -86.890625 C 72.351562 -85.617188 72.84375 -84.007812 72.84375 -82.0625 C 72.84375 -78.007812 71.039062 -75.984375 67.4375 -75.984375 L 31.921875 -75.984375 L 31.921875 -5.625 C 31.921875 -3.820312 31.171875 -2.429688 29.671875 -1.453125 C 28.171875 -0.484375 26.445312 0 24.5 0 C 19.550781 0 17.078125 -1.875 17.078125 -5.625 Z M 17.078125 -5.625 "/></g></g></g><g fill="#ffffff" fill-opacity="1"><g transform="translate(240.099959, 260.346985)"><g><path d="M 17.078125 -5.625 L 17.078125 -158.71875 C 17.078125 -160.519531 17.75 -161.90625 19.09375 -162.875 C 20.445312 -163.851562 22.023438 -164.34375 23.828125 -164.34375 L 60.703125 -164.34375 C 67.597656 -164.34375 73.59375 -163.816406 78.6875 -162.765625 C 83.78125 -161.710938 88.535156 -159.835938 92.953125 -157.140625 C 97.378906 -154.441406 100.753906 -150.503906 103.078125 -145.328125 C 105.398438 -140.160156 106.5625 -133.757812 106.5625 -126.125 C 106.5625 -116.832031 104.835938 -108.960938 101.390625 -102.515625 C 97.941406 -96.066406 93.296875 -91.570312 87.453125 -89.03125 C 94.941406 -86.03125 100.671875 -81.53125 104.640625 -75.53125 C 108.617188 -69.539062 110.609375 -61.148438 110.609375 -50.359375 L 110.609375 -46.3125 C 110.609375 -30.125 106.5625 -18.359375 98.46875 -11.015625 C 90.375 -3.671875 79.582031 0 66.09375 0 L 23.828125 0 C 21.734375 0 20.082031 -0.5625 18.875 -1.6875 C 17.675781 -2.8125 17.078125 -4.125 17.078125 -5.625 Z M 31.703125 -13.71875 L 64.296875 -13.71875 C 85.273438 -13.71875 95.765625 -24.804688 95.765625 -46.984375 L 95.765625 -50.8125 C 95.765625 -72.09375 85.273438 -82.734375 64.296875 -82.734375 L 31.703125 -82.734375 Z M 31.703125 -95.546875 L 61.15625 -95.546875 C 71.789062 -95.546875 79.539062 -97.753906 84.40625 -102.171875 C 89.28125 -106.597656 91.71875 -114.054688 91.71875 -124.546875 C 91.71875 -134.285156 89.019531 -141.066406 83.625 -144.890625 C 78.226562 -148.710938 70.4375 -150.625 60.25 -150.625 L 31.703125 -150.625 Z M 31.703125 -95.546875 "/></g></g></g></svg>